<svg id="Capa_1" data-name="Capa 1" xmlns="http://www.w3.org/2000/svg" viewBox="0 0 600 600"><defs><style>.cls-1{fill:#fff;}</style></defs><title>flecha</title><path class="cls-1" d="M298.55,357.32h-6.82q-59.76,0-119.51,0c-28.38,0-50.86-17.72-56.4-45.55a55.65,55.65,0,0,1,46.87-66.21,108.54,108.54,0,0,1,14.42-.92q57.26-.1,114.51,0h6.67l-18.49-18.4c-10.05-10-15.42-22.42-15.23-36.34.28-20.75,10.85-40.19,34.15-47.81,20.44-6.69,39-2.33,54.27,12.77q60.6,60,120.67,120.49c15.48,15.55,15.53,35.41,0,51q-59.93,60.3-120.23,120.23c-27.68,27.34-75.15,14.06-84.77-23.64-4.68-18.34-.27-35,13-48.85C286.85,368.67,292.25,363.56,298.55,357.32Z"/></svg>